<svg xmlns="http://www.w3.org/2000/svg" viewBox="0 0 620 360" width="620" height="360">
  <!-- Tree: 1 + (2 * 3) — ambiguous grammar, derivation 2 -->

  <!-- edges: parent bottom-centre → child top-centre -->
  <line x1="260" y1="48" x2="80"  y2="90" stroke="#555" stroke-width="1.5"/>
  <line x1="260" y1="48" x2="200" y2="90" stroke="#555" stroke-width="1.5"/>
  <line x1="260" y1="48" x2="450" y2="90" stroke="#555" stroke-width="1.5"/>
  <line x1="80"  y1="118" x2="80"  y2="160" stroke="#555" stroke-width="1.5"/>
  <line x1="450" y1="118" x2="360" y2="160" stroke="#555" stroke-width="1.5"/>
  <line x1="450" y1="118" x2="450" y2="160" stroke="#555" stroke-width="1.5"/>
  <line x1="450" y1="118" x2="545" y2="160" stroke="#555" stroke-width="1.5"/>
  <line x1="80"  y1="188" x2="80"  y2="230" stroke="#555" stroke-width="1.5"/>
  <line x1="360" y1="188" x2="360" y2="230" stroke="#555" stroke-width="1.5"/>
  <line x1="545" y1="188" x2="545" y2="230" stroke="#555" stroke-width="1.5"/>
  <line x1="360" y1="258" x2="360" y2="300" stroke="#555" stroke-width="1.5"/>
  <line x1="545" y1="258" x2="545" y2="300" stroke="#555" stroke-width="1.5"/>

  <!-- Level 0 -->
  <rect x="215" y="20" width="90" height="28" rx="5" fill="#2f6b3f" stroke="#234a2b" stroke-width="1.5"/>
  <text x="260" y="39" text-anchor="middle" font-family="monospace" font-size="13" fill="white">&lt;expr&gt;</text>

  <!-- Level 1 -->
  <rect x="35"  y="90" width="90" height="28" rx="5" fill="#2f6b3f" stroke="#234a2b" stroke-width="1.5"/>
  <text x="80"  y="109" text-anchor="middle" font-family="monospace" font-size="13" fill="white">&lt;expr&gt;</text>
  <rect x="175" y="90" width="50" height="28" rx="5" fill="#888" stroke="#444" stroke-width="1.5"/>
  <text x="200" y="109" text-anchor="middle" font-family="monospace" font-size="16" fill="white">+</text>
  <rect x="405" y="90" width="90" height="28" rx="5" fill="#2f6b3f" stroke="#234a2b" stroke-width="1.5"/>
  <text x="450" y="109" text-anchor="middle" font-family="monospace" font-size="13" fill="white">&lt;expr&gt;</text>

  <!-- Level 2 -->
  <rect x="40"  y="160" width="80" height="28" rx="5" fill="#4a7b5f" stroke="#234a2b" stroke-width="1.5"/>
  <text x="80"  y="179" text-anchor="middle" font-family="monospace" font-size="13" fill="white">nombre</text>
  <rect x="315" y="160" width="90" height="28" rx="5" fill="#2f6b3f" stroke="#234a2b" stroke-width="1.5"/>
  <text x="360" y="179" text-anchor="middle" font-family="monospace" font-size="13" fill="white">&lt;expr&gt;</text>
  <rect x="425" y="160" width="50" height="28" rx="5" fill="#888" stroke="#444" stroke-width="1.5"/>
  <text x="450" y="179" text-anchor="middle" font-family="monospace" font-size="16" fill="white">*</text>
  <rect x="500" y="160" width="90" height="28" rx="5" fill="#2f6b3f" stroke="#234a2b" stroke-width="1.5"/>
  <text x="545" y="179" text-anchor="middle" font-family="monospace" font-size="13" fill="white">&lt;expr&gt;</text>

  <!-- Level 3 -->
  <rect x="55"  y="230" width="50" height="28" rx="5" fill="#4a9b5f" stroke="#234a2b" stroke-width="1.5"/>
  <text x="80"  y="249" text-anchor="middle" font-family="monospace" font-size="15" fill="white">1</text>
  <rect x="320" y="230" width="80" height="28" rx="5" fill="#4a7b5f" stroke="#234a2b" stroke-width="1.5"/>
  <text x="360" y="249" text-anchor="middle" font-family="monospace" font-size="13" fill="white">nombre</text>
  <rect x="505" y="230" width="80" height="28" rx="5" fill="#4a7b5f" stroke="#234a2b" stroke-width="1.5"/>
  <text x="545" y="249" text-anchor="middle" font-family="monospace" font-size="13" fill="white">nombre</text>

  <!-- Level 4: leaves -->
  <rect x="335" y="300" width="50" height="28" rx="5" fill="#4a9b5f" stroke="#234a2b" stroke-width="1.5"/>
  <text x="360" y="319" text-anchor="middle" font-family="monospace" font-size="15" fill="white">2</text>
  <rect x="520" y="300" width="50" height="28" rx="5" fill="#4a9b5f" stroke="#234a2b" stroke-width="1.5"/>
  <text x="545" y="319" text-anchor="middle" font-family="monospace" font-size="15" fill="white">3</text>
</svg>
